<?xml version="1.0" encoding="UTF-8"?>
<svg width="700pt" height="700pt" version="1.1" viewBox="0 0 700 700" xmlns="http://www.w3.org/2000/svg">
 <g fill-rule="evenodd">
  <path d="m560.28 82.578c-5.9727 2.6602-13.066 6.0898-19.484 10.035-59.664 36.469-164.31 125.54-275.85 237.07-6.0898 6.0898-12.133 12.156-18.082 18.223-6.7656 6.8828-17.875 6.9531-24.734 0.1875-6.8828-6.7656-6.9766-17.875-0.21094-24.758 6.0195-6.1133 12.109-12.25 18.27-18.41 130.97-130.95 253.19-231.12 307.18-255.66 10.758-4.8984 19.625-7.0703 26.086-7.2109 8.9375-0.1875 15.422 2.8711 19.949 7.4219 4.5273 4.5273 7.6055 11.012 7.4219 19.949-0.14062 6.4414-2.332 15.309-7.2344 26.086-24.523 53.969-124.71 176.21-255.66 307.16-6.1602 6.1602-12.297 12.25-18.41 18.27-6.8828 6.7891-17.965 6.6953-24.758-0.1875-6.7656-6.8828-6.6719-17.965 0.21094-24.758 6.043-5.9492 12.109-11.969 18.223-18.082 111.54-111.54 200.57-216.18 237.07-275.82 3.9219-6.4414 7.375-13.535 10.012-19.508z"/>
  <path d="m292.32 350.54c33.926 33.926 33.926 88.992 0 122.92-48.301 48.301-131.86 50.516-167.16 37.148-15.074-5.7148-23.078-15.191-25.199-23.52-2.0781-8.0742-0.74609-17.266 8.1211-26.109 16.055-16.078 21.094-32.316 26.438-48.371 6.9062-20.742 14.164-41.324 34.906-62.066 33.902-33.902 88.992-33.902 122.9 0zm-152.55 127.66c3.2188 1.168 7 2.3555 10.453 2.9648 31.898 5.5547 84.84 0.046875 117.34-32.457 20.277-20.254 20.277-53.152 0-73.406-20.254-20.254-53.129-20.254-73.383 0-16.078 16.055-21.094 32.316-26.461 48.371-6.0664 18.246-12.414 36.328-27.953 54.531z"/>
  <path d="m314.35 267.8c-8.6562-4.2695-12.227-14.77-7.9336-23.426 4.2695-8.6562 14.77-12.227 23.426-7.957 16.102 7.957 31.195 18.621 44.59 32.012 13.371 13.371 24.035 28.441 31.965 44.52 4.293 8.6562 0.72266 19.156-7.9336 23.449-8.6562 4.2695-19.156 0.69922-23.426-7.957-6.3008-12.715-14.746-24.664-25.34-35.258-10.617-10.617-22.586-19.086-35.352-25.387z"/>
 </g>
</svg>
