<svg version="1.2" xmlns="http://www.w3.org/2000/svg" viewBox="0 0 1038 907" width="1038" height="907">
	<title>Design-svg</title>
	<defs>
		<linearGradient id="g1" x1="246.1" y1="538" x2="920.9" y2="538" gradientUnits="userSpaceOnUse">
			<stop offset="0" stop-color="#fdf0ee"/>
			<stop offset="1" stop-color="#8bc34a"/>
		</linearGradient>
		<linearGradient id="g2" x1="201.1" y1="142.2" x2="273.2" y2="142.2" gradientUnits="userSpaceOnUse">
			<stop offset="0" stop-color="#fdf0ee"/>
			<stop offset="1" stop-color="#f7ac9c"/>
		</linearGradient>
		<linearGradient id="g3" x1="130.9" y1="200.3" x2="229.6" y2="200.3" gradientUnits="userSpaceOnUse">
			<stop offset="0" stop-color="#fdf0ee"/>
			<stop offset="1" stop-color="#8bc34a"/>
		</linearGradient>
		<linearGradient id="g4" x1="202.6" y1="173.7" x2="202.6" y2="173.7" gradientUnits="userSpaceOnUse">
			<stop offset="0" stop-color="#fdf0ee"/>
			<stop offset="1" stop-color="#f7ac9c"/>
		</linearGradient>
	</defs>
	<style>
		.s0 { fill: #8bc34a } 
		.s1 { fill: #f2f2f2 } 
		.s2 { fill: #97a29e } 
		.s3 { fill: #f9fafb } 
		.s4 { fill: #323332 } 
		.s5 { fill: #1e1e1e } 
		.s6 { fill: #c8453f } 
		.s7 { fill: #fdbb2d } 
		.s8 { fill: #4bb649 } 
		.s9 { fill: #c2c5c7 } 
		.s10 { fill: #071f25 } 
		.s11 { fill: #6da52d } 
		.s12 { fill: #286400 } 
		.s13 { fill: #86673e } 
		.s14 { fill: #56391a } 
		.s15 { fill: #ffffff } 
		.s16 { fill: #000000 } 
		.s17 { fill: #c97c53 } 
		.s18 { fill: #c1a259 } 
		.s19 { fill: #f184b5 } 
		.s20 { fill: #231f20 } 
		.s21 { fill: #1a4b97 } 
		.s22 { fill: #f184b2 } 
		.s23 { fill: #f184b4 } 
		.s24 { fill: #eaea9b } 
		.s25 { fill: #eeee9e } 
		.s26 { fill: #262365 } 
		.s27 { fill: #181720 } 
		.s28 { fill: #262432 } 
		.s29 { fill: #437cbf } 
		.s30 { fill: #ce578f } 
		.s31 { fill: #1a325d } 
		.s32 { fill: #ba802b } 
		.s33 { mix-blend-mode: overlay;fill: url(#g1) } 
		.s34 { mix-blend-mode: overlay;fill: url(#g2) } 
		.s35 { mix-blend-mode: overlay;fill: url(#g3) } 
		.s36 { mix-blend-mode: overlay;fill: url(#g4) } 
	</style>
	<g id="Layer">
		<g id="Layer_1">
			<path id="Layer" class="s0" d="m60.5 214.5q3.7-3.6 7.7-7 4-3.4 8.1-6.6 4.2-3.2 8.5-6.1 4.3-2.9 8.8-5.6c33.6-20.1 72.2-29.6 111.8-36.4 35.7-6.1 72.2-9.8 106.3-17.1 18.4-4 36.5-9 54.4-14.8 41.5-13.3 81.9-30.2 122.6-45.8 15.3-6.7 30.9-12.8 46.7-18.2q10.2-3.5 20.6-6.5 10.4-3 20.9-5.6 10.5-2.5 21.1-4.6 10.6-2.1 21.3-3.6 9.3-1.4 18.6-2.2 9.3-0.9 18.7-1.2 9.4-0.4 18.7-0.2 9.4 0.1 18.7 0.8c30.2 2.2 59.7 9 87.9 21.2q6.7 2.9 13.3 6.2 6.9 3.5 13.5 7.3 6.7 3.9 13.1 8.2 6.4 4.2 12.5 8.9 6.1 4.6 12 9.6c55.7 37.6 115.4 54 151.8 116.3 32.2 55.2 29.9 134-18.4 175.9-20.3 17.5-47.8 28.7-59.7 52.8-25.5 58.8 54.4 145.8 56.9 216.9 21.7 118-12 177.2-155.3 209.7-123.1 28-219.3-21.7-266.6-45.2-7.7-3.8-14.1-7-19.2-9q-2.1-0.8-4.2-1.6-2.1-0.7-4.3-1.4-2.2-0.7-4.3-1.3-2.2-0.6-4.4-1.1-2.4-0.6-4.8-1-2.4-0.5-4.8-0.9-2.4-0.4-4.8-0.7-2.4-0.3-4.9-0.5h-0.6c-17.5-1.5-35.2 0.1-53.2 3.2l-0.8 0.1c-9.6 1.6-19.3 3.7-28.9 5.9-42.9 9.8-86.4 22.8-129.2 17.9q-2-0.2-3.9-0.5-2-0.3-3.9-0.6-2-0.4-3.9-0.8-2-0.3-3.9-0.8c-67.5-15.7-121.3-81.4-120.7-151.2 0.5-61.2 37-123.2 16.1-180.6-48.1-103.4-228.9-132.5-105.9-282.2z"/>
			<path id="Layer" class="s1" d="m916.8 631.4q0 1.5-0.5 2.8-0.6 1.3-1.6 2.3-1 1-2.3 1.6-1.3 0.5-2.8 0.6l-649.4-0.7q-1.5 0-2.8-0.5-1.3-0.6-2.3-1.6-1-1-1.5-2.3-0.6-1.3-0.6-2.7l-2.8-392.4q0-1.5 0.5-2.8 0.6-1.3 1.6-2.3 1-1 2.3-1.6 1.3-0.5 2.8-0.5l650.3 0.6q1.5 0 2.8 0.5 1.3 0.6 2.3 1.6 1 1 1.5 2.3 0.6 1.3 0.6 2.7z"/>
			<path id="Layer" fill-rule="evenodd" class="s2" d="m909.6 642.8l-649.4-0.6c-1.5 0-3-0.3-4.3-0.9-1.4-0.5-2.6-1.4-3.7-2.4-1-1-1.9-2.3-2.5-3.6-0.5-1.4-0.8-2.8-0.9-4.3l-2.7-392.4c-0.1-1.5 0.2-3 0.8-4.4 0.6-1.3 1.4-2.6 2.4-3.7 1.1-1 2.3-1.9 3.7-2.4 1.4-0.6 2.9-0.9 4.4-0.9l650.3 0.6c1.5 0 3 0.3 4.3 0.9 1.4 0.5 2.6 1.3 3.7 2.4 1 1 1.9 2.3 2.4 3.6 0.6 1.4 0.9 2.8 0.9 4.3l1.9 392.4c0 1.5-0.2 3-0.8 4.3-0.6 1.4-1.4 2.7-2.5 3.7-1 1.1-2.3 1.9-3.6 2.5-1.4 0.6-2.9 0.9-4.4 0.9zm-652.2-411.5q-1.5 0-2.8 0.5-1.3 0.6-2.3 1.6-1 1-1.6 2.3-0.5 1.4-0.5 2.8l2.8 392.4q0 1.4 0.6 2.7 0.5 1.3 1.5 2.3 1 1 2.3 1.6 1.3 0.5 2.8 0.5l649.4 0.6q1.5 0 2.8-0.5 1.3-0.6 2.3-1.6 1-1 1.6-2.3 0.5-1.3 0.5-2.8l-1.9-392.4q0-1.4-0.6-2.7-0.5-1.4-1.5-2.4-1-1-2.3-1.5-1.3-0.6-2.8-0.6l-650.3-0.6z"/>
			<path id="Layer" class="s3" d="m667.6 340.4h16.6v16.5h-16.6z"/>
			<path id="Layer" class="s4" d="m916.9 218.3v14.9h-666.8v-14.9c0-1.2 0.2-2.4 0.7-3.5 0.5-1.1 1.1-2.1 2-3 0.9-0.9 1.9-1.5 3-2 1.1-0.5 2.3-0.7 3.6-0.7h648.3c1.2 0 2.4 0.2 3.5 0.7 1.1 0.5 2.1 1.1 3 2 0.9 0.9 1.5 1.9 2 3 0.5 1.1 0.7 2.3 0.7 3.5z"/>
			<path id="Layer" fill-rule="evenodd" class="s5" d="m920.8 237.2h-674.6v-18.9c0-1.7 0.3-3.4 1-5 0.6-1.6 1.6-3.1 2.8-4.3 1.3-1.2 2.7-2.2 4.3-2.8 1.6-0.7 3.3-1 5.1-1h648.2c1.8 0 3.5 0.3 5.1 1 1.6 0.6 3 1.6 4.3 2.8 1.2 1.2 2.2 2.7 2.8 4.3 0.7 1.6 1 3.3 1 5zm-670.7-3.9h666.8v-14.9c0-1.2-0.2-2.4-0.7-3.5-0.5-1.1-1.1-2.2-2-3-0.9-0.9-1.9-1.6-3-2-1.1-0.5-2.3-0.7-3.5-0.7h-648.4c-1.2 0-2.4 0.2-3.5 0.7-1.1 0.4-2.1 1.1-3 2-0.9 0.8-1.5 1.9-2 3-0.5 1.1-0.7 2.3-0.7 3.5z"/>
			<path id="Layer" class="s6" d="m265.1 226c-2.7 0-4.9-2.1-4.9-4.8 0-2.7 2.2-4.9 4.9-4.9 2.7 0 4.9 2.2 4.9 4.9 0 2.7-2.2 4.8-4.9 4.8z"/>
			<path id="Layer" class="s7" d="m281.3 226c-2.7 0-4.8-2.1-4.8-4.8 0-2.7 2.1-4.9 4.8-4.9 2.7 0 4.9 2.2 4.9 4.9 0 2.7-2.2 4.8-4.9 4.8z"/>
			<path id="Layer" class="s8" d="m298.9 226c-2.7 0-4.9-2.1-4.9-4.8 0-2.7 2.2-4.9 4.9-4.9 2.7 0 4.9 2.2 4.9 4.9 0 2.7-2.2 4.8-4.9 4.8z"/>
			<path id="Layer" class="s9" d="m897 252.8v10.4l1 365.3-91-0.4-1-364.7v-11l91 0.4z"/>
			<path id="Layer" class="s10" d="m806.8 544.1l90.9-0.1v1.2l-90.9 0.1z"/>
			<path id="Layer" class="s9" d="m299.1 467.9h-26.1l-1.1-189.1v-8.2h26.1v8.3l1.1 189z"/>
			<path id="Layer" class="s10" d="m298 278.9l-26.1-0.1v-8.2h26.1v8.3z"/>
			<path id="Layer" class="s10" d="m278.6 284.1l13.2 10.8h-8.1l-5 6.5z"/>
			<path id="Layer" class="s10" d="m897 252.8v10.4l-91 0.2v-11l91 0.4z"/>
			<path id="Layer" class="s10" d="m806.3 358.2l91.6-0.2v1.2l-91.6 0.1z"/>
			<path id="Layer" class="s11" d="m135.2 201h44.9v44.9h-44.9z"/>
			<path id="Layer" fill-rule="evenodd" class="s12" d="m184.4 250.2h-53.5v-53.5h53.5zm-49.2-4.3h44.9v-44.9h-44.9z"/>
			<path id="Layer" class="s13" d="m268.2 123.9q0 1.3-0.2 2.5-0.3 1.2-0.7 2.3-0.5 1.2-1.2 2.2-0.7 1-1.5 1.9l-18.6 18.5q-1.5 1.6-2.4 3.6-0.9 2-1.1 4.1-0.2 2.2 0.3 4.3 0.6 2.1 1.8 3.9l-3.8 3.9-32.6-31.9 3.8-3.8q1.8 1.1 3.9 1.6 2.1 0.5 4.3 0.3 2.2-0.2 4.1-1.2 2-0.9 3.5-2.5l18.6-18.5q0.9-0.9 1.9-1.6 1.1-0.8 2.2-1.2 1.2-0.5 2.4-0.8 1.3-0.2 2.5-0.2c1.7 0 3.4 0.3 4.9 0.9 1.6 0.6 3 1.6 4.2 2.7 1.1 1.2 2.1 2.6 2.7 4.2 0.7 1.5 1 3.1 1 4.8z"/>
			<path id="Layer" fill-rule="evenodd" class="s14" d="m240.8 178.2l-39.7-38.9 10.6-10.8 1.8 1.7q1.1 1.1 2.5 1.6 1.4 0.6 2.9 0.6 1.5 0 2.9-0.6 1.4-0.6 2.5-1.7l18.6-18.6q1.2-1.2 2.7-2.2 1.4-1 3-1.7 1.7-0.7 3.4-1 1.7-0.3 3.5-0.3c3.5-0.1 6.9 0.9 9.8 2.9 2.9 1.9 5.2 4.6 6.5 7.9 1.4 3.2 1.8 6.7 1.1 10.2-0.7 3.4-2.3 6.6-4.8 9l-18.6 18.5q-1.1 1.1-1.6 2.5-0.6 1.4-0.6 3 0 1.5 0.6 2.9 0.6 1.4 1.7 2.4l1.8 1.8zm-32.6-39l32.5 31.9 3.8-3.8q-1.3-1.9-1.8-4-0.5-2.1-0.3-4.3 0.2-2.1 1.1-4.1 0.9-2 2.4-3.6l18.6-18.5c1.8-1.7 3-4 3.4-6.5 0.5-2.4 0.2-5-0.7-7.3-1-2.3-2.6-4.3-4.7-5.6-2.1-1.4-4.6-2.1-7.1-2.1q-1.3 0-2.5 0.2-1.2 0.3-2.4 0.8-1.1 0.5-2.2 1.2-1 0.7-1.9 1.6l-18.6 18.5q-1.5 1.6-3.5 2.5-2 1-4.1 1.2-2.2 0.2-4.3-0.3-2.1-0.5-3.9-1.6z"/>
			<path id="Layer" class="s11" d="m223.4 174.8l-39.3 38.6c-3 3-5.2 3.2-8.3 3.3q-1.6 0-3.1 0.3-1.6 0.2-3.1 0.7-1.4 0.5-2.9 1.2-1.4 0.7-2.6 1.6-0.3 0.2-0.6 0.3-0.3 0.2-0.6 0.3-0.3 0.1-0.6 0.1-0.3 0.1-0.6 0-0.8 0-1.4-0.3-0.7-0.3-1.1-0.8-0.5-0.6-0.8-1.3-0.2-0.6-0.2-1.4 0.1-0.3 0.1-0.6 0.1-0.3 0.2-0.6 0.1-0.4 0.2-0.7 0.2-0.3 0.4-0.5 0.7-1.3 1.3-2.6 0.6-1.4 1-2.8 0.4-1.4 0.6-2.9 0.2-1.5 0.2-3c0.2-3.2 0.3-5.5 3.3-8.5l39.3-38.7 4.1 4.1-25 24.5h20.7l14.6-14.4z"/>
			<path id="Layer" fill-rule="evenodd" class="s12" d="m161.8 225.6h-0.3q-1.6-0.1-3-0.8-1.5-0.7-2.5-1.9-1.1-1.1-1.6-2.6-0.5-1.5-0.5-3.1 0.1-0.6 0.2-1.1 0.1-0.6 0.3-1.2 0.2-0.6 0.4-1.1 0.3-0.5 0.6-1 0.6-1.1 1.1-2.2 0.5-1.1 0.8-2.3 0.3-1.1 0.5-2.3 0.1-1.2 0.1-2.5c0.2-3.5 0.4-7.1 4.5-11.4l42.4-41.6 10.3 10.1-20.6 20.2h8.3l16.4-16.1 10.4 10.1-42.4 41.6c-4.2 4.2-7.7 4.4-11.1 4.6q-1.3 0-2.6 0.2-1.2 0.2-2.5 0.6-1.2 0.3-2.3 0.9-1.1 0.6-2.2 1.3-0.5 0.4-1 0.7-0.6 0.3-1.2 0.5-0.6 0.2-1.2 0.3-0.6 0.1-1.3 0.1zm43-69l-39.3 38.6c-3 3.1-3.1 5.4-3.3 8.6q0 1.5-0.2 2.9-0.2 1.5-0.6 2.9-0.4 1.4-1 2.8-0.6 1.3-1.3 2.6-0.2 0.3-0.4 0.6-0.1 0.3-0.2 0.6-0.1 0.3-0.2 0.6 0 0.3-0.1 0.7 0 0.7 0.2 1.4 0.3 0.6 0.8 1.2 0.4 0.5 1.1 0.8 0.6 0.3 1.4 0.4 0.3 0 0.6-0.1 0.3 0 0.6-0.1 0.3-0.1 0.6-0.2 0.3-0.2 0.6-0.4 1.2-0.9 2.6-1.6 1.5-0.7 2.9-1.2 1.5-0.5 3.1-0.7 1.5-0.2 3.1-0.2c3.1-0.2 5.3-0.3 8.3-3.4l39.3-38.6-4.2-4-14.6 14.3h-20.7l25-24.5z"/>
			<path id="Layer" class="s15" d="m223.4 174.8l-15.5 15.2-35.4-1.7 32.3-31.8 4.1 4.1-25 24.5h20.7l14.6-14.4 4.2 4.1z"/>
			<path id="Layer" class="s16" d="m202.6 173.8v-0.1-0.1 0.1z"/>
			<path id="Layer" class="s1" d="m324 286.1h179.3v33.4h-179.3z"/>
			<path id="Layer" fill-rule="evenodd" class="s2" d="m504.1 320.3h-180.9v-35h180.9zm-179.3-1.6h177.7v-31.8h-177.7z"/>
			<path id="Layer" class="s17" d="m468 311.4v-16.2l16.1-0.1-0.1 16.2-16 0.1z"/>
			<path id="Layer" class="s13" d="m433.2 311.4v-16.2l16.1-0.1v16.2l-16.1 0.1z"/>
			<path id="Layer" class="s18" d="m398.4 311.4l0.1-16.2 16.1-0.1-0.1 16.2-16.1 0.1z"/>
			<path id="Layer" class="s19" d="m363.7 311.4v-16.2l16.1-0.1v16.2l-16.1 0.1z"/>
			<path id="Layer" class="s4" d="m324 268.5h179.3v17.6h-179.3z"/>
			<path id="Layer" fill-rule="evenodd" class="s5" d="m504.1 286.9h-180.9v-19.2h180.9zm-179.3-1.6h177.7v-16h-177.7z"/>
			<path id="Layer" fill-rule="evenodd" class="s20" d="m332.9 306v-11.8h11.8v11.7zm2-9.8v7.9h7.8v-7.9z"/>
			<path id="Layer" class="s15" d="m338.8 312.3v-11.3h11.3l-0.1 11.2-11.2 0.1z"/>
			<path id="Layer" class="s13" d="m336.8 571.1l-22.7 27.2c-1.7 2-4.1 3.3-6.8 3.6-2.6 0.2-5.3-0.6-7.3-2.3-2-1.7-3.3-4.2-3.5-6.8-0.3-2.6 0.5-5.3 2.2-7.3l22.7-27.3z"/>
			<path id="Layer" fill-rule="evenodd" class="s14" d="m306.4 604.6c-2.4 0-4.8-0.7-6.8-2-2-1.3-3.7-3.1-4.7-5.3-1-2.2-1.4-4.6-1.1-7 0.3-2.4 1.3-4.7 2.9-6.5l24.4-29.3 19.5 16.2-24.4 29.3q-0.8 1-1.8 1.8-1 0.7-2.1 1.3-1.1 0.6-2.3 1-1.2 0.3-2.4 0.4-0.6 0.1-1.2 0.1zm15-46.4l-22.7 27.3c-1.7 2-2.5 4.7-2.3 7.3 0.3 2.6 1.6 5.1 3.6 6.8 2 1.7 4.7 2.5 7.3 2.3 2.6-0.3 5.1-1.6 6.8-3.6l22.7-27.2z"/>
			<path id="Layer" class="s1" d="m409.3 523.6l-44.6 53.5-53.5-44.6 44.6-53.5 13.2 11-11.4 13.6 6.6 5.5 11.4-13.6 33.7 28.1z"/>
			<path id="Layer" fill-rule="evenodd" class="s2" d="m365 580.4l-57.1-47.6 47.6-57.1 16.7 14-11.4 13.6 3.1 2.6 11.4-13.7 37.3 31.1zm-53.9-47.9l53.6 44.7 44.6-53.6-33.7-28.1-11.4 13.6-6.6-5.5 11.4-13.6-13.2-11z"/>
			<path id="Layer" class="s13" d="m363 578.9l-9 10.8-53.3-44.4 9-10.8 53.3 44.4z"/>
			<path id="Layer" fill-rule="evenodd" class="s14" d="m366.8 578.6l-12.4 14.9-57.4-47.8 12.4-14.9zm-12.8 11.1l9-10.8-53.2-44.4-9 10.8z"/>
			<path id="Layer" class="s0" d="m409.3 523.6l-17.3 20.8-53.5-44.6 17.3-20.8 13.2 11-11.4 13.6 6.6 5.5 11.4-13.6 33.7 28.1z"/>
			<path id="Layer" fill-rule="evenodd" class="s12" d="m392.3 547.6l-57.1-47.5 20.3-24.4 16.7 14-11.4 13.6 3.1 2.6 11.4-13.7 37.3 31.1zm-53.9-47.9l53.6 44.7 17.3-20.8-33.7-28.2-11.4 13.7-6.6-5.5 11.4-13.6-13.2-11z"/>
			<path id="Layer" class="s21" d="m822.5 499.9c1.7-12.9 13.5-22 26.4-20.3 12.9 1.6 22 13.4 20.3 26.3-1.6 12.9-13.4 22-26.3 20.4-12.9-1.7-22-13.5-20.4-26.4z"/>
			<path id="Layer" class="s19" d="m851.3 558.7c-8.2-1-16.4-1.7-24.7-2.5 2.6-12.7 5.1-25.4 7.7-38.1q9.7 1.3 19.3 2.6-1.3 19-2.3 38z"/>
			<path id="Layer" class="s19" d="m825.6 529.8l4.3 0.5c9.6 1.2 27.6-4.4 28.8-14l1.2-9c0.3-2.3 0.1-4.6-0.5-6.8-0.6-2.2-1.6-4.3-3-6.1-1.4-1.9-3.2-3.4-5.2-4.5-2-1.2-4.2-1.9-6.5-2.2l-4.2-0.5c-2.3-0.3-4.6-0.2-6.8 0.4-2.3 0.6-4.3 1.7-6.2 3.1-1.8 1.4-3.3 3.1-4.4 5.1-1.2 2-1.9 4.2-2.2 6.5l-1.2 9c-1.2 9.6-3.7 17.2 5.9 18.5z"/>
			<path id="Layer" class="s21" d="m815.6 494.2c-0.5-5 3.1-9.6 8.1-10.1l15.4-1.8c5-0.5 9.6 3.1 10.1 8.1 0.6 5-3 9.6-8 10.1l-15.4 1.8c-5.1 0.6-9.6-3.1-10.2-8.1z"/>
			<path id="Layer" class="s21" d="m845.1 491.1c2.1-4.6 7.5-6.6 12.1-4.6l4.3 2c4.7 2.1 6.7 7.5 4.6 12.1-2.1 4.6-7.5 6.7-12.1 4.6l-4.3-2c-4.6-2-6.7-7.5-4.6-12.1z"/>
			<path id="Layer" class="s19" d="m853.3 513c-0.2 1.1-0.1 2.2 0.2 3.2 0.2 1.1 0.8 2.1 1.5 2.9 0.7 0.8 1.5 1.5 2.5 2 1 0.5 2.1 0.7 3.2 0.7q1.7 0.2 3.3-0.4 1.7-0.5 3-1.6 1.4-1.1 2.2-2.6 0.9-1.5 1.1-3.2c0.2-1.1 0.2-2.2-0.1-3.3-0.3-1-0.8-2-1.5-2.8-0.7-0.9-1.6-1.5-2.6-2-0.9-0.5-2-0.7-3.1-0.8q-1.7-0.1-3.4 0.4-1.6 0.6-3 1.7-1.3 1.1-2.2 2.6-0.8 1.5-1.1 3.2z"/>
			<path id="Layer" class="s22" d="m726.8 562.4l-1.8 5.9-1.8 5.8 50.1 11.4 23-7.6c7.5-2.7 13.3-5.4 13-12.6-0.1-1.7-0.5-3.3-1.3-4.9-0.8-1.5-1.8-2.8-3.2-3.9-1.3-1.1-2.8-1.8-4.4-2.3-1.7-0.4-3.4-0.5-5.1-0.2l-22.8 12z"/>
			<path id="Layer" class="s23" d="m709.2 561.1q-0.4 1.1-0.5 2.3 0 1.2 0.4 2.3 0.5 1.1 1.3 2 0.8 0.9 1.8 1.4l8.2 4q1.1 0.5 2.4 0.6 1.3 0.1 2.5-0.4 1.2-0.4 2.1-1.3 0.9-0.9 1.4-2l0.4-1q0.5-1.1 0.5-2.4 0-1.3-0.5-2.5-0.5-1.1-1.5-2-0.9-0.9-2.1-1.3l-8.5-3.1q-1.1-0.4-2.3-0.4-1.2 0-2.3 0.5-1.1 0.5-2 1.3-0.8 0.9-1.3 2z"/>
			<path id="Layer" class="s23" d="m719.8 560.4q-0.1 0.3 0 0.6 0.1 0.3 0.2 0.5 0.2 0.3 0.5 0.4 0.2 0.2 0.5 0.3l2.3 0.5c0.9 0.2 4.8 1.4 5 0.5v-0.3c0.1-0.9-3.6-3.5-4.5-3.6l-2.3-0.2q-0.3-0.1-0.6 0-0.3 0.1-0.5 0.3-0.2 0.2-0.4 0.4-0.1 0.3-0.2 0.6z"/>
			<path id="Layer" class="s24" d="m809.7 542.2l-26.7 13.7 12.9 24.6q0.3 0.5 0.8 0.8 0.5 0.3 1 0.5 0.6 0.1 1.2 0 0.6-0.1 1.1-0.4l23.1-12.9c5.2-3.7 8.2-8.7 5.4-14l-4-7.6c-0.7-1.3-1.6-2.4-2.7-3.3-1.1-0.9-2.4-1.6-3.8-2.1-1.3-0.4-2.8-0.6-4.2-0.4-1.4 0.1-2.8 0.5-4.1 1.1z"/>
			<path id="Layer" class="s25" d="m817.4 540.6h46.2c1.6 0 3.1 0.3 4.6 0.9 1.4 0.6 2.8 1.5 3.9 2.6 1.1 1.1 1.9 2.4 2.5 3.9 0.6 1.4 0.9 3 0.9 4.5v76.4h-72.1v-74.4c0-1.8 0.4-3.6 1.1-5.3 0.7-1.7 1.7-3.2 3-4.5 1.3-1.3 2.8-2.3 4.5-3 1.7-0.7 3.5-1.1 5.4-1.1z"/>
			<path id="Layer" class="s19" d="m820 835.5l4.2 27.5h12.8l-3.6-29.7c0 0-9 1-13.4 2.2z"/>
			<path id="Layer" class="s19" d="m794.6 870.7h43.3l-0.9-7.7h-12.8c0 0-30.2 2.6-29.6 7.7z"/>
			<path id="Layer" class="s26" d="m836.5 858.9l1.4 11.8h-43.9c-1.2-10.4 29.6-11.8 29.6-11.8z"/>
			<path id="Layer" class="s27" d="m812.4 846l14.4 0.1 14.5 0.2-9-109.4 13.5-113h-41.9c-1.6 0-2.9-1.6-3.1 0l-2.9 106.1z"/>
			<path id="Layer" class="s19" d="m872.7 834.2l7.4 28.8h12.8l-6.4-28.5-13.8-0.3z"/>
			<path id="Layer" class="s19" d="m851.3 870.7h43.3l-1.7-7.7h-12.8c0 0-29.9 2.6-28.8 7.7z"/>
			<path id="Layer" class="s26" d="m892 858.9l2.6 11.8h-43.9c-2.3-10.4 28.3-11.8 28.3-11.8z"/>
			<path id="Layer" class="s28" d="m866.5 846l14.4 0.1 14.5 0.2-20.5-109.4 1.7-113h-41.9c-1.6 0-3.1 0-3.1 0l8.3 106.1z"/>
			<path id="Layer" class="s19" d="m794.4 599.4l0.3-6.4 53.5-3.8 5.6-20.3 21.5 9.6-13.8 30-67.3-2.8 0.2-6.3z"/>
			<path id="Layer" class="s19" d="m775.4 598.6q-0.1 1.3 0.4 2.6 0.4 1.2 1.2 2.2 0.9 0.9 2 1.5 1.2 0.6 2.5 0.7l9.8 0.9q1.4 0.2 2.7-0.2 1.3-0.5 2.3-1.4 1.1-0.9 1.7-2.2 0.6-1.2 0.6-2.6v-1.1q0.1-1.4-0.4-2.7-0.5-1.2-1.5-2.2-1-1-2.2-1.6-1.3-0.5-2.7-0.5l-9.9 0.2q-1.2 0-2.4 0.5-1.2 0.5-2.1 1.4-0.9 0.9-1.4 2.1-0.6 1.2-0.6 2.4z"/>
			<path id="Layer" class="s25" d="m853.9 554l-10.8 24.5 26.5 11.5q0.5 0.2 1.1 0.2 0.7 0 1.2-0.3 0.5-0.3 0.9-0.7 0.5-0.5 0.6-1.1l9.4-21.4c0.9-1.9 1.3-3.9 1.3-5.9 0.1-2.1-0.3-4.1-1-6-0.8-1.9-1.9-3.7-3.3-5.1-1.4-1.5-3.1-2.7-5-3.5l-0.4-0.2c-1.9-0.8-3.9-1.3-6-1.3-2-0.1-4 0.3-5.9 1-1.9 0.8-3.7 1.9-5.2 3.3-1.4 1.4-2.6 3.1-3.4 5z"/>
			<path id="Layer" class="s3" d="m665.1 359.4h7.8v176.3h-7.8v8.4h-176.9v-9h-9.5v-175.7h9.5v-9.5h176.9v9.5z"/>
			<path id="Layer" class="s29" d="m469.2 356.9v-16.5h16.6v16.5zm16.5 197.3h-16.5v-16.6h16.5zm198.5-16v16.6h-16.6v-16.6z"/>
			<path id="Layer" fill-rule="evenodd" class="s3" d="m675.4 359.4v176.3h11.3l-0.1 21.5h-21.5v-10.6h-176.9v10.1h-21.5v-21.6h9.5v-175.7h-9.5v-21.5h21.5v9.5h176.9v-9.5h21.6l-0.1 21.5zm-2.4 0h-7.8v-9.5h-176.9v9.5h-9.5v175.7h9.5v9h176.9v-8.4h7.8zm11.3-2.5v-16.6h-16.6v16.6z"/>
			<path id="Layer" class="s3" d="m667.6 538.1h16.6v16.6h-16.6z"/>
			<path id="Layer" class="s3" d="m469.2 340.4h16.6v16.5h-16.6z"/>
			<path id="Layer" class="s3" d="m469.2 537.6h16.6v16.6h-16.6z"/>
			<path id="Layer" class="s16" d="m675.2 542.7l28.3 23.2h-17.3l-10.6 14z"/>
			<path id="Layer" class="s16" d="m694.5 586.1h10.1l-0.1-10h-10.1l0.1 10z"/>
			<path id="Layer" class="s19" d="m604.8 414.8v-49.8h-49.8v49.8 49.8h49.8 49.7v-49.8h-49.7z"/>
			<path id="Layer" fill-rule="evenodd" class="s30" d="m655.7 465.7h-101.9v-101.8h52.1v49.7h49.8zm-99.5-2.3h97.2v-47.4h-49.8v-49.8h-47.4z"/>
			<path id="Layer" fill-rule="evenodd" class="s31" d="m593.6 527.1h-101.6v-101.6h51.8v49.8h49.8zm-99.6-2h97.5v-47.8h-49.7v-49.7h-47.8z"/>
			<path id="Layer" class="s13" d="m612.2 365.6h3v43.1h-3z"/>
			<path id="Layer" class="s13" d="m619.9 365.6h3v43.1h-3z"/>
			<path id="Layer" class="s13" d="m627.6 365.6h3v43.1h-3z"/>
			<path id="Layer" class="s13" d="m635.3 365.6h3v43.1h-3z"/>
			<path id="Layer" class="s13" d="m643 365.6h3v43.1h-3z"/>
			<path id="Layer" class="s13" d="m650.7 365.6h2.9v43.1h-2.9z"/>
			<path id="Layer" class="s7" d="m608.1 478.8h41.3v8.7h-41.3z"/>
			<path id="Layer" fill-rule="evenodd" class="s32" d="m650.5 488.7h-43.6v-11h43.6zm-41.3-2.3h39v-6.4h-39z"/>
			<path id="Layer" class="s19" d="m608.1 497.8h41.3v8.7h-41.3z"/>
			<path id="Layer" fill-rule="evenodd" class="s30" d="m650.5 507.6h-43.6v-11h43.6zm-41.3-2.3h39v-6.4h-39z"/>
			<path id="Layer" class="s21" d="m608.1 515.6h22.1v8.7h-22.1z"/>
			<path id="Layer" fill-rule="evenodd" class="s29" d="m631.4 525.5h-24.6v-11.2h24.6zm-22.1-2.5h19.7v-6.2h-19.7z"/>
			<path id="Layer" class="s7" d="m502 402l2.5-2.4 12.2 12.2-2.4 2.4z"/>
			<path id="Layer" fill-rule="evenodd" class="s32" d="m514.3 415.9l-13.9-13.9 4.1-4.1 13.8 13.9zm-10.6-13.8l10.6 10.6 0.8-0.8-10.6-10.6z"/>
			<path id="Layer" class="s7" d="m515.4 388.6l2.4-2.4 12.2 12.3-2.4 2.4z"/>
			<path id="Layer" fill-rule="evenodd" class="s32" d="m527.6 402.5l-13.9-13.9 4-4 13.9 13.9zm-10.6-13.9l10.6 10.6 0.8-0.8-10.6-10.6z"/>
			<path id="Layer" class="s19" d="m528.7 375.3l2.5-2.4 12.2 12.2-2.4 2.4z"/>
			<path id="Layer" fill-rule="evenodd" class="s30" d="m541 389.2l-13.9-13.9 4-4 13.9 13.8zm-10.6-13.9l10.6 10.6 0.8-0.8-10.6-10.6z"/>
			<path id="Layer" class="s31" d="m523.5 426.8l18.8-18.8q-1.3 0.7-2.5 1.5-1.2 0.8-2.3 1.6-1.2 0.9-2.3 1.8-1.1 0.9-2.2 1.9l-2.7 2.7q-1 1.1-1.9 2.2-0.9 1.1-1.8 2.3-0.8 1.1-1.6 2.3-0.8 1.2-1.5 2.5z"/>
			<path id="Layer" class="s31" d="m517.9 441.7l39.3-39.3q-1.6 0.3-3.2 0.7l-35.3 35.4q-0.5 1.6-0.8 3.2z"/>
			<path id="Layer" class="s31" d="m516.9 451.7v0.3l50.6-50.6h-0.3q-1.1 0-2.2 0l-48 48.1c-0.1 0.7-0.1 1.5-0.1 2.2z"/>
			<path id="Layer" class="s31" d="m517.7 460.5l58.4-58.4q-1.1-0.1-2.2-0.3l-56.6 56.6q0.2 1.1 0.4 2.1z"/>
			<path id="Layer" class="s31" d="m519.6 468l63.9-63.9q-0.9-0.3-1.9-0.6l-62.6 62.6q0.3 0.9 0.6 1.9z"/>
			<path id="Layer" class="s31" d="m522.4 474.5l67.6-67.7q-0.8-0.4-1.6-0.8l-66.9 66.9q0.5 0.8 0.9 1.6z"/>
			<path id="Layer" class="s31" d="m525.9 480.3l70-70c-0.5-0.3-1-0.6-1.5-1l-69.5 69.5q0.5 0.8 1 1.5z"/>
			<path id="Layer" class="s31" d="m530 485.5l71.1-71q-0.7-0.6-1.3-1.2l-70.9 70.9q0.5 0.7 1.1 1.3z"/>
			<path id="Layer" class="s31" d="m534.7 490.1l70.9-70.9q-0.5-0.7-1.1-1.3l-71.1 71.1q0.7 0.5 1.3 1.1z"/>
			<path id="Layer" class="s31" d="m540.1 494.1l69.5-69.5q-0.5-0.8-1-1.5l-70 70q0.8 0.5 1.5 1z"/>
			<path id="Layer" class="s31" d="m546.1 497.4l66.8-66.8q-0.4-0.8-0.8-1.7l-67.6 67.7c0.5 0.2 1.1 0.5 1.6 0.8z"/>
			<path id="Layer" class="s31" d="m552.9 499.9l62.5-62.5q-0.2-1-0.6-1.9l-63.8 63.8q1 0.3 1.9 0.6z"/>
			<path id="Layer" class="s31" d="m560.6 501.5l56.5-56.5q-0.2-1-0.4-2.1l-58.2 58.3q1 0.2 2.1 0.3z"/>
			<path id="Layer" class="s31" d="m567.2 502q1.2 0 2.3 0l48-48q0-1.2 0-2.3v-0.2l-50.5 50.5z"/>
			<path id="Layer" class="s31" d="m580.6 500.2l35.1-35.1q0.4-1.6 0.8-3.3l-39.1 39.2q1.6-0.4 3.2-0.8z"/>
			<path id="Layer" class="s31" d="m610.7 476.9l-18.3 18.3q2.9-1.6 5.5-3.6 2.6-2 4.9-4.4 2.3-2.3 4.3-4.9 2-2.6 3.6-5.4z"/>
			<g id="Layer" style="opacity: .3">
				<path id="Layer" class="s33" d="m919 239q0-0.2 0-0.5 0-0.2 0-0.4 0-0.3-0.1-0.5 0-0.2 0-0.5h2v-18.8c0-1.7-0.4-3.4-1-5-0.7-1.6-1.7-3.1-2.9-4.3-1.2-1.2-2.7-2.2-4.3-2.8-1.6-0.7-3.3-1-5-1h-648.4c-1.7 0-3.4 0.3-5 1-1.6 0.6-3 1.6-4.3 2.8-1.2 1.2-2.2 2.7-2.8 4.3-0.7 1.6-1 3.3-1 5v18.6q-0.1 0.2-0.1 0.4 0 0.2 0 0.4 0 0.2 0 0.4 0 0.2 0 0.5l2.7 392.4c0 1.5 0.3 2.9 0.9 4.3 0.6 1.4 1.4 2.6 2.5 3.6 1 1.1 2.3 1.9 3.6 2.5 1.4 0.5 2.9 0.8 4.3 0.8l540.2 0.5-2.4 87.3 14.5 116 9.3 0.1 2 12.8h-0.1c0 0-30.7 1.4-29.6 11.8h43.9l-0.9-7.7-0.1-1-0.4-3.1-1.5-12.7 6.3 0.1-9-109.4 4.9-41 2.7 34.1 26.6 116 9.3 0.1 3.3 12.8h-0.1c0 0-30.6 1.4-28.3 11.8h43.8l-1.6-7.7-0.3-1-0.6-3.1-2.9-12.6h6.3l-20.5-109.4 1.4-94.1h33.3c1.5 0 3-0.3 4.4-0.9 1.3-0.6 2.6-1.4 3.6-2.5 1.1-1 1.9-2.3 2.5-3.7 0.5-1.3 0.8-2.8 0.8-4.3z"/>
				<path id="Layer" class="s34" d="m268.1 136.3c2.5-2.4 4.1-5.6 4.8-9 0.7-3.5 0.3-7-1.1-10.2-1.3-3.3-3.6-6-6.5-7.9-2.9-2-6.3-3-9.8-2.9q-1.8 0-3.5 0.3-1.7 0.3-3.4 1-1.6 0.7-3 1.7-1.5 1-2.7 2.2l-18.6 18.6q-1.1 1.1-2.5 1.7-1.4 0.6-2.9 0.6-1.5 0-2.9-0.6-1.4-0.5-2.5-1.6l-1.8-1.7-10.6 10.8 39.7 38.9 10.6-10.8-1.8-1.8q-1.1-1-1.7-2.4-0.6-1.4-0.6-2.9 0-1.6 0.6-3 0.5-1.4 1.6-2.4z"/>
				<path id="Layer" class="s35" d="m219.2 164.7l-16.4 16.1h-8.3l20.6-20.2-10.3-10.1-42.4 41.6q-0.5 0.5-0.9 1-0.5 0.6-0.9 1.1-0.4 0.6-0.7 1.2-0.4 0.6-0.7 1.3h-28.3v53.5h53.5v-31.5q0.4-0.2 0.7-0.5 0.4-0.3 0.7-0.6 0.4-0.3 0.7-0.6 0.3-0.3 0.7-0.6l42.4-41.6z"/>
				<path id="Layer" class="s36" d="m202.6 173.6v0.2-0.1-0.1z"/>
			</g>
		</g>
	</g>
</svg>