<?xml version="1.0" encoding="UTF-8"?>
<svg width="700pt" height="700pt" version="1.1" viewBox="0 0 700 700" xmlns="http://www.w3.org/2000/svg">
 <path d="m251.32 290.41c-66.812 29.207-111.32 86.867-111.32 152.35 0 18.273 10.797 34.863 31.781 47.656 36.242 22.117 107.15 34 178.22 34s141.98-11.883 178.22-34c20.984-12.793 31.781-29.383 31.781-47.656 0-65.484-44.504-123.14-111.32-152.35-14.684-6.4258-56.648-10.414-98.684-10.414s-84 3.9883-98.684 10.414zm14.035 32.059c12.566-5.4961 48.652-7.4727 84.648-7.4727s72.082 1.9766 84.648 7.4727c53.27 23.293 90.352 68.094 90.352 120.29 0 4.0273-2.3086 7.4219-5.582 10.641-5.582 5.5156-13.773 10.133-23.695 14.266-35.316 14.715-90.547 21.75-145.72 21.75s-110.41-7.0352-145.72-21.75c-9.9219-4.1328-18.113-8.75-23.695-14.266-3.2734-3.2188-5.582-6.6133-5.582-10.641 0-52.199 37.082-97 90.352-120.29zm84.648-304.97c-62.773 0-113.75 50.977-113.75 113.75s50.977 113.75 113.75 113.75 113.75-50.977 113.75-113.75-50.977-113.75-113.75-113.75zm0 35c43.469 0 78.75 35.281 78.75 78.75s-35.281 78.75-78.75 78.75-78.75-35.281-78.75-78.75 35.281-78.75 78.75-78.75z" fill-rule="evenodd"/>
</svg>
