<?xml version="1.0" encoding="UTF-8"?>
<svg width="700pt" height="700pt" version="1.1" viewBox="0 0 700 700" xmlns="http://www.w3.org/2000/svg" xmlns:xlink="http://www.w3.org/1999/xlink">
 <defs>
  <symbol id="l" overflow="visible">
   <path d="m29.312-1.75c-1.5117 0.78125-3.0898 1.3711-4.7344 1.7656-1.6367 0.40625-3.3398 0.60938-5.1094 0.60938-5.3125 0-9.5273-1.4844-12.641-4.4531-3.1055-2.9688-4.6562-7-4.6562-12.094s1.5508-9.125 4.6562-12.094c3.1133-2.9688 7.3281-4.4531 12.641-4.4531 1.7695 0 3.4727 0.19922 5.1094 0.59375 1.6445 0.39844 3.2227 0.99219 4.7344 1.7812v6.5938c-1.5312-1.0391-3.0391-1.8008-4.5156-2.2812-1.4805-0.48828-3.0391-0.73438-4.6719-0.73438-2.9375 0-5.2461 0.94531-6.9219 2.8281-1.6797 1.875-2.5156 4.4648-2.5156 7.7656 0 3.293 0.83594 5.8828 2.5156 7.7656 1.6758 1.875 3.9844 2.8125 6.9219 2.8125 1.6328 0 3.1914-0.23828 4.6719-0.71875 1.4766-0.48828 2.9844-1.2539 4.5156-2.2969z"/>
  </symbol>
  <symbol id="d" overflow="visible">
   <path d="m21.453-17.406c-0.67969-0.3125-1.3516-0.53906-2.0156-0.6875-0.65625-0.15625-1.3203-0.23438-1.9844-0.23438-1.9688 0-3.4844 0.63281-4.5469 1.8906-1.0547 1.2617-1.5781 3.0703-1.5781 5.4219v11.016h-7.6562v-23.922h7.6562v3.9219c0.97656-1.5625 2.1016-2.7031 3.375-3.4219 1.2812-0.71875 2.8125-1.0781 4.5938-1.0781 0.25 0 0.52344 0.011719 0.82812 0.03125 0.30078 0.023438 0.73438 0.070312 1.2969 0.14062z"/>
  </symbol>
  <symbol id="c" overflow="visible">
   <path d="m27.562-12.031v2.1875h-17.891c0.1875 1.793 0.83203 3.1367 1.9375 4.0312 1.1133 0.89844 2.6719 1.3438 4.6719 1.3438 1.6016 0 3.25-0.23438 4.9375-0.70312 1.6875-0.47656 3.4219-1.2031 5.2031-2.1719v5.8906c-1.8047 0.6875-3.6094 1.2031-5.4219 1.5469-1.8125 0.35156-3.6211 0.53125-5.4219 0.53125-4.3359 0-7.7031-1.0977-10.109-3.2969-2.3984-2.207-3.5938-5.2969-3.5938-9.2656 0-3.9062 1.1758-6.9727 3.5312-9.2031 2.3633-2.2383 5.6094-3.3594 9.7344-3.3594 3.7578 0 6.7695 1.1367 9.0312 3.4062 2.2578 2.2617 3.3906 5.2812 3.3906 9.0625zm-7.8594-2.5312c0-1.457-0.42969-2.6289-1.2812-3.5156-0.84375-0.89453-1.9492-1.3438-3.3125-1.3438-1.4922 0-2.6992 0.41797-3.625 1.25-0.91797 0.83594-1.4922 2.0391-1.7188 3.6094z"/>
  </symbol>
  <symbol id="a" overflow="visible">
   <path d="m14.391-10.766c-1.5938 0-2.793 0.27344-3.5938 0.8125-0.80469 0.54297-1.2031 1.3398-1.2031 2.3906 0 0.96875 0.32031 1.7305 0.96875 2.2812 0.64453 0.54297 1.5469 0.8125 2.7031 0.8125 1.4375 0 2.6445-0.51562 3.625-1.5469 0.98828-1.0312 1.4844-2.3203 1.4844-3.875v-0.875zm11.688-2.8906v13.656h-7.7031v-3.5469c-1.0312 1.4492-2.1875 2.5078-3.4688 3.1719s-2.8398 1-4.6719 1c-2.4805 0-4.4961-0.72266-6.0469-2.1719-1.543-1.4453-2.3125-3.3203-2.3125-5.625 0-2.8125 0.96094-4.8672 2.8906-6.1719 1.9375-1.3125 4.9688-1.9688 9.0938-1.9688h4.5156v-0.60938c0-1.207-0.48047-2.0938-1.4375-2.6562-0.94922-0.5625-2.4375-0.84375-4.4688-0.84375-1.6367 0-3.1562 0.16797-4.5625 0.5-1.4062 0.32422-2.7188 0.8125-3.9375 1.4688v-5.8281c1.6445-0.40625 3.2891-0.70703 4.9375-0.90625 1.6562-0.20703 3.3047-0.3125 4.9531-0.3125 4.3203 0 7.4375 0.85547 9.3438 2.5625 1.9141 1.6992 2.875 4.4609 2.875 8.2812z"/>
  </symbol>
  <symbol id="b" overflow="visible">
   <path d="m12.031-30.719v6.7969h7.875v5.4688h-7.875v10.141c0 1.1172 0.21875 1.8711 0.65625 2.2656 0.4375 0.38672 1.3125 0.57812 2.625 0.57812h3.9375v5.4688h-6.5625c-3.0234 0-5.1641-0.62891-6.4219-1.8906-1.2617-1.2578-1.8906-3.3984-1.8906-6.4219v-10.141h-3.7969v-5.4688h3.7969v-6.7969z"/>
  </symbol>
  <symbol id="i" overflow="visible">
   <path d="m19.953-20.422v-12.812h7.6875v33.234h-7.6875v-3.4531c-1.0547 1.4062-2.2148 2.4375-3.4844 3.0938-1.2734 0.65625-2.7422 0.98438-4.4062 0.98438-2.9492 0-5.3711-1.1719-7.2656-3.5156-1.8867-2.3438-2.8281-5.3594-2.8281-9.0469s0.94141-6.7031 2.8281-9.0469c1.8945-2.3438 4.3164-3.5156 7.2656-3.5156 1.6562 0 3.1172 0.33594 4.3906 1 1.2812 0.65625 2.4453 1.6836 3.5 3.0781zm-5.0469 15.484c1.6445 0 2.8945-0.59766 3.75-1.7969 0.86328-1.1953 1.2969-2.9297 1.2969-5.2031 0-2.2812-0.43359-4.0195-1.2969-5.2188-0.85547-1.1953-2.1055-1.7969-3.75-1.7969-1.625 0-2.8711 0.60156-3.7344 1.7969-0.85547 1.1992-1.2812 2.9375-1.2812 5.2188 0 2.2734 0.42578 4.0078 1.2812 5.2031 0.86328 1.1992 2.1094 1.7969 3.7344 1.7969z"/>
  </symbol>
  <symbol id="h" overflow="visible">
   <path d="m16.406-4.9375c1.6328 0 2.8828-0.59766 3.75-1.7969 0.86328-1.1953 1.2969-2.9297 1.2969-5.2031 0-2.2812-0.43359-4.0195-1.2969-5.2188-0.86719-1.1953-2.1172-1.7969-3.75-1.7969-1.6367 0-2.8906 0.60547-3.7656 1.8125-0.875 1.1992-1.3125 2.9336-1.3125 5.2031 0 2.2617 0.4375 3.9961 1.3125 5.2031 0.875 1.1992 2.1289 1.7969 3.7656 1.7969zm-5.0781-15.484c1.0508-1.3945 2.2188-2.4219 3.5-3.0781 1.2812-0.66406 2.7539-1 4.4219-1 2.9453 0 5.3672 1.1719 7.2656 3.5156 1.8945 2.3438 2.8438 5.3594 2.8438 9.0469s-0.94922 6.7031-2.8438 9.0469c-1.8984 2.3438-4.3203 3.5156-7.2656 3.5156-1.668 0-3.1406-0.33594-4.4219-1s-2.4492-1.6914-3.5-3.0781v3.4531h-7.6562v-33.234h7.6562z"/>
  </symbol>
  <symbol id="g" overflow="visible">
   <path d="m0.53125-23.922h7.6562l6.4219 16.234 5.4688-16.234h7.6562l-10.062 26.188c-1.0117 2.6641-2.1953 4.5234-3.5469 5.5781-1.3438 1.0625-3.1211 1.5938-5.3281 1.5938h-4.4219v-5.0156h2.3906c1.3008 0 2.2422-0.21094 2.8281-0.625 0.59375-0.40625 1.0547-1.1484 1.3906-2.2188l0.20312-0.65625z"/>
  </symbol>
  <symbol id="f" overflow="visible">
   <path d="m3.6719-33.234h7.6562v33.234h-7.6562z"/>
  </symbol>
  <symbol id="e" overflow="visible">
   <path d="m22.359-23.172v5.7969c-1.6367-0.67578-3.2148-1.1875-4.7344-1.5312-1.5234-0.34375-2.9609-0.51562-4.3125-0.51562-1.4609 0-2.543 0.18359-3.25 0.54688-0.69922 0.36719-1.0469 0.92188-1.0469 1.6719 0 0.61719 0.26562 1.0898 0.79688 1.4219 0.53125 0.32422 1.4883 0.5625 2.875 0.71875l1.3438 0.1875c3.9141 0.5 6.5508 1.3242 7.9062 2.4688 1.3516 1.1367 2.0312 2.9219 2.0312 5.3594 0 2.5547-0.94531 4.4688-2.8281 5.75-1.875 1.2812-4.6797 1.9219-8.4062 1.9219-1.5859 0-3.2188-0.125-4.9062-0.375s-3.4219-0.625-5.2031-1.125v-5.8125c1.5195 0.74219 3.082 1.2969 4.6875 1.6719 1.6016 0.36719 3.2344 0.54688 4.8906 0.54688 1.4883 0 2.6094-0.20312 3.3594-0.60938 0.75781-0.41406 1.1406-1.0312 1.1406-1.8438 0-0.6875-0.26172-1.1953-0.78125-1.5312-0.52344-0.33203-1.5586-0.59375-3.1094-0.78125l-1.3438-0.17188c-3.4062-0.42578-5.793-1.2109-7.1562-2.3594-1.3672-1.1562-2.0469-2.9102-2.0469-5.2656 0-2.5312 0.86719-4.4062 2.6094-5.625 1.7383-1.2266 4.3984-1.8438 7.9844-1.8438 1.4062 0 2.8828 0.10938 4.4375 0.32812 1.5508 0.21094 3.2383 0.54297 5.0625 1z"/>
  </symbol>
  <symbol id="k" overflow="visible">
   <path d="m11.328-3.4531v12.547h-7.6562v-33.016h7.6562v3.5c1.0508-1.3945 2.2188-2.4219 3.5-3.0781 1.2812-0.66406 2.7539-1 4.4219-1 2.9453 0 5.3672 1.1719 7.2656 3.5156 1.8945 2.3438 2.8438 5.3594 2.8438 9.0469s-0.94922 6.7031-2.8438 9.0469c-1.8984 2.3438-4.3203 3.5156-7.2656 3.5156-1.668 0-3.1406-0.33594-4.4219-1s-2.4492-1.6914-3.5-3.0781zm5.0781-15.5c-1.6367 0-2.8906 0.60547-3.7656 1.8125-0.875 1.1992-1.3125 2.9336-1.3125 5.2031 0 2.2617 0.4375 3.9961 1.3125 5.2031 0.875 1.1992 2.1289 1.7969 3.7656 1.7969 1.6328 0 2.8828-0.59766 3.75-1.7969 0.86328-1.1953 1.2969-2.9297 1.2969-5.2031 0-2.2812-0.43359-4.0195-1.2969-5.2188-0.86719-1.1953-2.1172-1.7969-3.75-1.7969z"/>
  </symbol>
  <symbol id="j" overflow="visible">
   <path d="m3.6719-33.234h7.6562v18.094l8.7969-8.7812h8.8906l-11.688 10.969 12.594 12.953h-9.2656l-9.3281-9.9688v9.9688h-7.6562z"/>
  </symbol>
 </defs>
 <g>
  <path d="m105.14 52.637c-4.832 0.023437-8.7695-3.875-8.793-8.707-0.023438-4.832 3.875-8.7695 8.707-8.793h0.085938c4.832 0 8.75 3.918 8.75 8.75s-3.918 8.75-8.75 8.75z"/>
  <path d="m131.39 52.637c-4.832 0.023437-8.7695-3.875-8.793-8.707-0.023438-4.832 3.875-8.7695 8.707-8.793h0.085938c4.832 0 8.75 3.918 8.75 8.75s-3.918 8.75-8.75 8.75z"/>
  <path d="m157.64 52.637c-4.832 0.023437-8.7695-3.875-8.793-8.707-0.023438-4.832 3.875-8.7695 8.707-8.793h0.085938c4.832 0 8.75 3.918 8.75 8.75s-3.918 8.75-8.75 8.75z"/>
  <path d="m621.29 542.36h-542.5c-2.3203 0-4.5469-0.92188-6.1914-2.5625-1.6406-1.6406-2.5625-3.8672-2.5586-6.1875v-472.23c-0.003906-2.3203 0.91797-4.5469 2.5586-6.1875 1.6445-1.6406 3.8711-2.5625 6.1914-2.5625h542.5c2.3203 0 4.5469 0.92188 6.1875 2.5625s2.5625 3.8672 2.5625 6.1875v472.23c0 2.3203-0.92188 4.5469-2.5625 6.1875s-3.8672 2.5625-6.1875 2.5625zm-533.75-17.5h525v-454.73h-525z"/>
  <path d="m78.715 52.637c-2.3203 0-4.5469-0.92188-6.1875-2.5625s-2.5625-3.8672-2.5625-6.1875c0.007812-6.9609 2.7773-13.633 7.6992-18.555 4.918-4.918 11.594-7.6875 18.551-7.6953 4.832 0 8.75 3.918 8.75 8.75s-3.918 8.75-8.75 8.75c-4.832 0.003906-8.7461 3.918-8.75 8.75 0.003906 2.3203-0.91797 4.5469-2.5586 6.1875-1.6445 1.6406-3.8711 2.5625-6.1914 2.5625z"/>
  <path d="m78.715 70.137c-2.3203 0-4.5469-0.92188-6.1875-2.5625s-2.5625-3.8672-2.5625-6.1875v-17.5c0-4.832 3.918-8.75 8.75-8.75 4.832 0 8.75 3.918 8.75 8.75v17.5c0.003906 2.3203-0.91797 4.5469-2.5586 6.1875-1.6445 1.6406-3.8711 2.5625-6.1914 2.5625z"/>
  <path d="m621.21 52.637c-2.3203 0-4.5469-0.92188-6.1875-2.5625s-2.5625-3.8672-2.5625-6.1875c-0.003906-4.832-3.918-8.7461-8.75-8.75-4.832 0-8.75-3.918-8.75-8.75s3.918-8.75 8.75-8.75c6.9609 0.007812 13.633 2.7773 18.555 7.6953 4.9219 4.9219 7.6875 11.594 7.6953 18.555 0.003906 2.3203-0.91797 4.5469-2.5586 6.1875-1.6445 1.6406-3.8711 2.5625-6.1914 2.5625z"/>
  <path d="m621.21 70.137c-2.3203 0-4.5469-0.92188-6.1875-2.5625s-2.5625-3.8672-2.5625-6.1875v-17.5c0-4.832 3.918-8.75 8.75-8.75 4.832 0 8.75 3.918 8.75 8.75v17.5c0.003906 2.3203-0.91797 4.5469-2.5586 6.1875-1.6445 1.6406-3.8711 2.5625-6.1914 2.5625z"/>
  <path d="m603.71 35.137h-507.5c-4.832 0-8.75-3.918-8.75-8.75s3.918-8.75 8.75-8.75h507.5c4.832 0 8.75 3.918 8.75 8.75s-3.918 8.75-8.75 8.75z"/>
  <path d="m236.39 481.27h-113.7c-4.832 0-8.75-3.9141-8.75-8.75 0-4.832 3.918-8.75 8.75-8.75h113.7c4.832 0 8.75 3.918 8.75 8.75 0 4.8359-3.918 8.75-8.75 8.75z"/>
  <path d="m577.62 481.27h-113.7c-4.832 0-8.75-3.9141-8.75-8.75 0-4.832 3.918-8.75 8.75-8.75h113.7c4.832 0 8.75 3.918 8.75 8.75 0 4.8359-3.918 8.75-8.75 8.75z"/>
  <path d="m406.89 481.27h-113.7c-4.832 0-8.75-3.9141-8.75-8.75 0-4.832 3.918-8.75 8.75-8.75h113.7c4.8359 0 8.75 3.918 8.75 8.75 0 4.8359-3.9141 8.75-8.75 8.75z"/>
  <path d="m380.8 507.52h-61.523c-4.832 0-8.75-3.9141-8.75-8.75 0-4.832 3.918-8.75 8.75-8.75h61.523c4.832 0 8.75 3.918 8.75 8.75 0 4.8359-3.918 8.75-8.75 8.75z"/>
  <path d="m551.42 507.52h-61.301c-4.832 0-8.75-3.9141-8.75-8.75 0-4.832 3.918-8.75 8.75-8.75h61.301c4.832 0 8.75 3.918 8.75 8.75 0 4.8359-3.918 8.75-8.75 8.75z"/>
  <path d="m210.17 507.52h-61.234c-4.832 0-8.75-3.9141-8.75-8.75 0-4.832 3.918-8.75 8.75-8.75h61.234c4.832 0 8.75 3.918 8.75 8.75 0 4.8359-3.918 8.75-8.75 8.75z"/>
  <path d="m586.42 367.46h-472.5c-2.3203 0.003906-4.5469-0.91797-6.1914-2.5586-1.6406-1.6445-2.5625-3.8711-2.5586-6.1914v-262.19c-0.003906-2.3203 0.91797-4.5469 2.5586-6.1875 1.6445-1.6406 3.8711-2.5625 6.1914-2.5625h472.5c2.3203 0 4.5469 0.92187 6.1875 2.5625 1.6406 1.6406 2.5625 3.8672 2.5625 6.1875v262.19c0 2.3203-0.92188 4.5469-2.5625 6.1914-1.6406 1.6406-3.8672 2.5625-6.1875 2.5586zm-463.75-17.5h455v-244.69h-455z"/>
  <path d="m542.57 210.21h-157.5c-4.832 0-8.75-3.918-8.75-8.75 0-4.8359 3.918-8.75 8.75-8.75h157.5c4.8359 0 8.75 3.9141 8.75 8.75 0 4.832-3.9141 8.75-8.75 8.75z"/>
  <path d="m542.57 183.94h-157.5c-4.832 0-8.75-3.918-8.75-8.75s3.918-8.75 8.75-8.75h157.5c4.8359 0 8.75 3.918 8.75 8.75s-3.9141 8.75-8.75 8.75z"/>
  <path d="m542.57 157.65h-157.5c-4.832 0-8.75-3.918-8.75-8.75 0-4.832 3.918-8.75 8.75-8.75h157.5c4.8359 0 8.75 3.918 8.75 8.75 0 4.832-3.9141 8.75-8.75 8.75z"/>
  <path d="m542.57 236.52h-157.5c-4.832 0-8.75-3.918-8.75-8.75 0-4.832 3.918-8.75 8.75-8.75h157.5c4.8359 0 8.75 3.918 8.75 8.75 0 4.832-3.9141 8.75-8.75 8.75z"/>
  <path d="m463.8 262.84h-78.734 0.003906c-4.8359 0-8.75-3.9141-8.75-8.75 0-4.832 3.9141-8.75 8.75-8.75h78.734-0.003907c4.832 0 8.75 3.918 8.75 8.75 0 4.8359-3.918 8.75-8.75 8.75z"/>
  <path d="m201.41 450.66c-2.3242 0-4.5508-0.92188-6.1914-2.5625s-2.5625-3.8672-2.5586-6.1875c0-7.25-5.8789-13.125-13.125-13.125-7.25 0-13.125 5.875-13.125 13.125 0 4.832-3.918 8.75-8.75 8.75-4.8359 0-8.75-3.918-8.75-8.75 0-10.941 5.8359-21.051 15.312-26.523 9.4727-5.4688 21.148-5.4688 30.625 0 9.4727 5.4727 15.312 15.582 15.312 26.523 0 2.3203-0.92187 4.5469-2.5625 6.1875-1.6406 1.6406-3.8672 2.5625-6.1875 2.5625z"/>
  <path d="m179.54 428.75c-5.8047 0-11.367-2.3047-15.469-6.4062-4.1016-4.1016-6.4062-9.668-6.4062-15.469s2.3047-11.367 6.4062-15.469c4.1016-4.1016 9.6641-6.4062 15.469-6.4062 5.8008 0 11.363 2.3047 15.465 6.4062 4.1055 4.1016 6.4102 9.668 6.4102 15.469-0.007812 5.8008-2.3125 11.359-6.4141 15.461-4.1016 4.1016-9.6641 6.4102-15.461 6.4141zm0-26.25c-1.7695 0-3.3672 1.0664-4.043 2.6992-0.67969 1.6367-0.30469 3.5195 0.94922 4.7695 1.25 1.25 3.1328 1.625 4.7656 0.94922 1.6367-0.67969 2.7031-2.2734 2.7031-4.043-0.007812-2.4141-1.9609-4.3711-4.375-4.375z"/>
  <path d="m372.05 450.66c-2.3203 0-4.5469-0.92188-6.1914-2.5625-1.6406-1.6406-2.5625-3.8672-2.5586-6.1875 0-7.25-5.8789-13.125-13.125-13.125-7.25 0-13.125 5.875-13.125 13.125 0 4.832-3.918 8.75-8.75 8.75s-8.75-3.918-8.75-8.75c0-10.941 5.8359-21.051 15.312-26.523 9.4727-5.4688 21.148-5.4688 30.625 0 9.4727 5.4727 15.312 15.582 15.312 26.523 0 2.3203-0.92188 4.5469-2.5625 6.1875s-3.8672 2.5625-6.1875 2.5625z"/>
  <path d="m350.17 428.75c-5.8008 0-11.367-2.3047-15.469-6.4062s-6.4062-9.668-6.4062-15.469 2.3047-11.367 6.4062-15.469 9.668-6.4062 15.469-6.4062 11.363 2.3047 15.469 6.4062c4.1016 4.1016 6.4062 9.668 6.4062 15.469-0.007813 5.8008-2.3125 11.359-6.4141 15.461-4.1016 4.1016-9.6602 6.4102-15.461 6.4141zm0-26.25c-1.7695 0-3.3672 1.0664-4.043 2.6992-0.67578 1.6367-0.30469 3.5195 0.94922 4.7695 1.25 1.25 3.1328 1.625 4.7656 0.94922 1.6367-0.67969 2.7031-2.2734 2.7031-4.043-0.003906-2.4141-1.9609-4.3711-4.375-4.375z"/>
  <path d="m542.68 450.66c-2.3203 0-4.5469-0.92188-6.1875-2.5625-1.6445-1.6406-2.5625-3.8672-2.5625-6.1875 0-7.25-5.875-13.125-13.125-13.125s-13.125 5.875-13.125 13.125c0 4.832-3.918 8.75-8.75 8.75-4.832 0-8.75-3.918-8.75-8.75 0-10.941 5.8359-21.051 15.312-26.523 9.4766-5.4688 21.148-5.4688 30.625 0 9.4766 5.4727 15.312 15.582 15.312 26.523 0 2.3203-0.92188 4.5469-2.5625 6.1875-1.6406 1.6406-3.8672 2.5625-6.1875 2.5625z"/>
  <path d="m520.8 428.75c-5.8008 0-11.367-2.3047-15.469-6.4062-4.1016-4.1016-6.4062-9.668-6.4062-15.469s2.3047-11.367 6.4062-15.469c4.1016-4.1016 9.668-6.4062 15.469-6.4062 5.8008 0 11.367 2.3047 15.469 6.4062 4.1016 4.1016 6.4062 9.668 6.4062 15.469-0.003907 5.8008-2.3125 11.359-6.4141 15.461-4.1016 4.1016-9.6602 6.4102-15.461 6.4141zm0-26.25c-1.7695 0-3.3633 1.0664-4.043 2.6992-0.67578 1.6367-0.30078 3.5195 0.94922 4.7695s3.1328 1.625 4.7695 0.94922c1.6328-0.67969 2.6992-2.2734 2.6992-4.043-0.003907-2.4141-1.9609-4.3711-4.375-4.375z"/>
  <path d="m323.74 323.75h-157.5c-2.3203 0-4.5469-0.92188-6.1914-2.5625-1.6406-1.6406-2.5625-3.8672-2.5586-6.1875v-114.55c0-4.832 3.918-8.75 8.75-8.75 4.832 0 8.75 3.918 8.75 8.75v105.8h140v-105.81c0-4.832 3.918-8.75 8.75-8.75 4.832 0 8.75 3.918 8.75 8.75v114.56c0 2.3203-0.92188 4.5469-2.5625 6.1875-1.6406 1.6406-3.8672 2.5625-6.1875 2.5625z"/>
  <path d="m148.75 218.75c-4 0.003906-7.4961-2.707-8.4844-6.5859-0.98828-3.875 0.77734-7.9297 4.2891-9.8477l96.25-52.5c4.2383-2.2852 9.5312-0.71484 11.836 3.5156 2.3086 4.2305 0.75781 9.5273-3.4609 11.852l-96.25 52.5c-1.2812 0.69922-2.7188 1.0664-4.1797 1.0664z"/>
  <path d="m148.75 192.5c-4 0.003906-7.4961-2.707-8.4844-6.5859-0.98828-3.875 0.77734-7.9297 4.2891-9.8477l96.25-52.5c4.2383-2.2852 9.5312-0.71484 11.836 3.5156 2.3086 4.2305 0.75781 9.5273-3.4609 11.852l-96.25 52.5c-1.2812 0.69922-2.7188 1.0664-4.1797 1.0664z"/>
  <path d="m148.74 218.75c-2.3203 0-4.5469-0.92188-6.1914-2.5625-1.6406-1.6406-2.5625-3.8672-2.5586-6.1875v-26.25c0-4.832 3.918-8.75 8.75-8.75 4.832 0 8.75 3.918 8.75 8.75v26.25c0 2.3203-0.92188 4.5469-2.5625 6.1875-1.6406 1.6406-3.8672 2.5625-6.1875 2.5625z"/>
  <path d="m341.23 218.75c-1.4609 0-2.8984-0.36719-4.1797-1.0664l-96.25-52.5c-2.0469-1.1055-3.5703-2.9805-4.2305-5.2109-0.66406-2.2305-0.41016-4.6328 0.70312-6.6758 1.1133-2.043 2.9961-3.5586 5.2266-4.2109 2.2344-0.65234 4.6367-0.39063 6.6758 0.73047l96.25 52.5c3.5117 1.918 5.2773 5.9727 4.2891 9.8477-0.99219 3.8789-4.4844 6.5898-8.4844 6.5859z"/>
  <path d="m341.23 192.5c-1.4609 0-2.8984-0.36719-4.1797-1.0664l-96.25-52.5c-2.0469-1.1055-3.5703-2.9805-4.2305-5.2109-0.66406-2.2305-0.41016-4.6328 0.70312-6.6758 1.1133-2.043 2.9961-3.5586 5.2266-4.2109 2.2344-0.65234 4.6367-0.39063 6.6758 0.73047l96.25 52.5c3.5117 1.918 5.2773 5.9727 4.2891 9.8477-0.99219 3.8789-4.4844 6.5898-8.4844 6.5859z"/>
  <path d="m341.24 218.75c-2.3203 0-4.5469-0.92188-6.1914-2.5625-1.6406-1.6406-2.5625-3.8672-2.5586-6.1875v-26.25c0-4.832 3.918-8.75 8.75-8.75 4.832 0 8.75 3.918 8.75 8.75v26.25c0 2.3203-0.92188 4.5469-2.5625 6.1875-1.6406 1.6406-3.8672 2.5625-6.1875 2.5625z"/>
  <path d="m288.73 297.5h-87.5c-2.3242 0-4.5508-0.92188-6.1914-2.5625s-2.5625-3.8672-2.5586-6.1875v-35c0-4.832 3.918-8.75 8.75-8.75s8.75 3.918 8.75 8.75v26.25h70v-26.25c0-4.832 3.918-8.75 8.75-8.75s8.75 3.918 8.75 8.75v35c0 2.3203-0.92188 4.5469-2.5625 6.1875s-3.8672 2.5625-6.1875 2.5625z"/>
  <path d="m288.73 262.5c-2.3242 0-4.5508-0.92188-6.1914-2.5625s-2.5625-3.8672-2.5586-6.1875v-26.25c0-4.832 3.918-8.75 8.75-8.75s8.75 3.918 8.75 8.75v26.25c0 2.3203-0.92188 4.5469-2.5625 6.1875s-3.8672 2.5625-6.1875 2.5625z"/>
  <path d="m201.23 262.5c-2.3242 0-4.5508-0.92188-6.1914-2.5625s-2.5625-3.8672-2.5586-6.1875v-26.25c0-4.832 3.918-8.75 8.75-8.75s8.75 3.918 8.75 8.75v26.25c0 2.3203-0.92188 4.5469-2.5625 6.1875s-3.8672 2.5625-6.1875 2.5625z"/>
  <path d="m201.23 236.25c-2.3242 0-4.5508-0.92188-6.1914-2.5625s-2.5625-3.8672-2.5586-6.1875c0.003906-4.6406 1.8516-9.0859 5.1289-12.367 3.2812-3.2812 7.7305-5.125 12.371-5.1328 4.832 0 8.75 3.918 8.75 8.75s-3.918 8.75-8.75 8.75c0 2.3203-0.92188 4.5469-2.5625 6.1875s-3.8672 2.5625-6.1875 2.5625z"/>
  <path d="m288.73 236.25c-2.3242 0-4.5508-0.92188-6.1914-2.5625s-2.5625-3.8672-2.5586-6.1875v-0.015625c-4.8281 0-8.7422-3.9141-8.7422-8.7422 0-4.8281 3.9141-8.7422 8.7422-8.7422 4.6367 0.007812 9.0859 1.8516 12.367 5.1328s5.125 7.7266 5.1328 12.367c0 2.3203-0.92188 4.5469-2.5625 6.1875s-3.8672 2.5625-6.1875 2.5625z"/>
  <path d="m288.73 253.75h-87.5c-4.832 0-8.75-3.918-8.75-8.75s3.918-8.75 8.75-8.75h87.5c4.832 0 8.75 3.918 8.75 8.75s-3.918 8.75-8.75 8.75z"/>
  <path d="m279.98 227.5h-70c-4.832 0-8.75-3.918-8.75-8.75s3.918-8.75 8.75-8.75h70c4.832 0 8.75 3.918 8.75 8.75s-3.918 8.75-8.75 8.75z"/>
  <path d="m262.48 227.5h-35c-2.3242 0-4.5508-0.92188-6.1914-2.5625s-2.5625-3.8672-2.5586-6.1875v-26.25c-0.003906-2.3203 0.91797-4.5469 2.5586-6.1875s3.8672-2.5625 6.1914-2.5625h35c2.3203 0 4.5469 0.92188 6.1875 2.5625s2.5625 3.8672 2.5625 6.1875v26.25c0 2.3203-0.92188 4.5469-2.5625 6.1875s-3.8672 2.5625-6.1875 2.5625zm-26.25-17.5h17.5v-8.75h-17.5z"/>
  <path d="m244.98 262.5c-2.3242 0-4.5508-0.92188-6.1914-2.5625s-2.5625-3.8672-2.5586-6.1875v-17.5c0-4.832 3.918-8.75 8.75-8.75s8.75 3.918 8.75 8.75v17.5c0 2.3203-0.92188 4.5469-2.5625 6.1875s-3.8672 2.5625-6.1875 2.5625z"/>
  <path d="m463.92 323.75h-78.855c-2.3203 0-4.5469-0.92188-6.1875-2.5625s-2.5625-3.8672-2.5625-6.1875v-26.25c0-2.3203 0.92188-4.5469 2.5625-6.1875s3.8672-2.5625 6.1875-2.5625h78.855c2.3203 0 4.5469 0.92188 6.1875 2.5625s2.5625 3.8672 2.5625 6.1875v26.25c0 2.3203-0.92188 4.5469-2.5625 6.1875s-3.8672 2.5625-6.1875 2.5625zm-70.102-17.5h61.352v-8.75h-61.355z"/>
  <use x="70" y="691.25" xlink:href="#l"/>
  <use x="102.109375" y="691.25" xlink:href="#d"/>
  <use x="123.683594" y="691.25" xlink:href="#c"/>
  <use x="153.355469" y="691.25" xlink:href="#a"/>
  <use x="182.878906" y="691.25" xlink:href="#b"/>
  <use x="203.792969" y="691.25" xlink:href="#c"/>
  <use x="233.464844" y="691.25" xlink:href="#i"/>
  <use x="280.011719" y="691.25" xlink:href="#h"/>
  <use x="311.328125" y="691.25" xlink:href="#g"/>
  <use x="355.078125" y="691.25" xlink:href="#f"/>
  <use x="370.078125" y="691.25" xlink:href="#a"/>
  <use x="399.597656" y="691.25" xlink:href="#e"/>
  <use x="425.640625" y="691.25" xlink:href="#b"/>
  <use x="446.554688" y="691.25" xlink:href="#e"/>
  <use x="472.59375" y="691.25" xlink:href="#k"/>
  <use x="503.910156" y="691.25" xlink:href="#a"/>
  <use x="533.433594" y="691.25" xlink:href="#d"/>
  <use x="555.007812" y="691.25" xlink:href="#j"/>
 </g>
</svg>
